<?xml version="1.0" encoding="UTF-8"?>
<svg width="50px" height="40px" viewBox="0 0 50 40" version="1.1" xmlns="http://www.w3.org/2000/svg" xmlns:xlink="http://www.w3.org/1999/xlink">
    <!-- Generator: Sketch 53.2 (72643) - https://sketchapp.com -->
    <title>SonarQube</title>
    <desc>Created with Sketch.</desc>
    <g id="SonarQube" stroke="none" stroke-width="1" fill="none" fill-rule="evenodd">
        <g transform="translate(0.000000, 14.000000)">
            <path d="M0.26908078,9.28941504 C0.545682451,9.45821727 1.11977716,9.65598886 1.5637883,9.65598886 C2.01922006,9.65598886 2.20668524,9.49721448 2.20668524,9.25069638 C2.20668524,9.00417827 2.05905292,8.88440111 1.49498607,8.69665738 C0.495821727,8.36016713 0.111420613,7.81615599 0.120334262,7.24233983 C0.120334262,6.34178273 0.892200557,5.66016713 2.08802228,5.66016713 C2.65208914,5.66016713 3.15598886,5.78774373 3.45292479,5.93649025 L3.18635097,6.97465181 C2.96880223,6.85598886 2.55348189,6.69832869 2.13816156,6.69832869 C1.7718663,6.69832869 1.56406685,6.845961 1.56406685,7.09359331 C1.56406685,7.32116992 1.75292479,7.44011142 2.34568245,7.64763231 C3.26490251,7.96406685 3.65153203,8.4275766 3.66044568,9.14094708 C3.66044568,10.04039 2.94874652,10.7033426 1.56406685,10.7033426 C0.931197772,10.7033426 0.368245125,10.5640669 0.00194986072,10.3668524 L0.26908078,9.28941504 Z" id="Path" fill="#1B171B" fill-rule="nonzero"></path>
            <path d="M8.95208914,8.13370474 C8.95208914,9.90362117 7.69637883,10.7153203 6.4005571,10.7153203 C4.98607242,10.7142061 3.89972145,9.78467967 3.89972145,8.22144847 C3.89972145,6.65821727 4.92785515,5.66100279 6.48133705,5.66100279 C7.9637883,5.66100279 8.95208914,6.67910864 8.95208914,8.13370474 Z M5.45125348,8.18245125 C5.45125348,9.01309192 5.79749304,9.63593315 6.44038997,9.63593315 C7.02534819,9.63593315 7.39972145,9.05097493 7.39972145,8.18245125 C7.39972145,7.46072423 7.12339833,6.7281337 6.44038997,6.7281337 C5.71866295,6.7281337 5.45125348,7.46963788 5.45125348,8.18245125 Z" id="Shape" fill="#1B171B" fill-rule="nonzero"></path>
            <path d="M9.48830084,7.31197772 C9.48830084,6.7091922 9.46824513,6.19498607 9.44846797,5.76991643 L10.754039,5.76991643 L10.8228412,6.43147632 L10.8529248,6.43147632 C11.0506964,6.12506964 11.5445682,5.66100279 12.3451253,5.66100279 C13.3345404,5.66100279 14.0763231,6.31281337 14.0763231,7.73732591 L14.0763231,10.6064067 L12.5721448,10.6064067 L12.5721448,7.92506964 C12.5721448,7.30194986 12.3545961,6.87688022 11.810585,6.87688022 C11.3952646,6.87688022 11.1487465,7.1632312 11.0501393,7.44094708 C11.0100279,7.52980501 10.9899721,7.67743733 10.9899721,7.81615599 L10.9899721,10.6052925 L9.48830084,10.6052925 L9.48830084,7.31197772 Z" id="Path" fill="#1B171B" fill-rule="nonzero"></path>
            <path d="M17.6370474,10.6052925 L17.5487465,10.1200557 L17.5208914,10.1200557 C17.2044568,10.5064067 16.7091922,10.7142061 16.1362117,10.7142061 C15.1568245,10.7142061 14.5738162,10.0013928 14.5738162,9.23064067 C14.5738162,7.97493036 15.7008357,7.37075209 17.4119777,7.38077994 L17.4119777,7.31197772 C17.4119777,7.05431755 17.2727019,6.68913649 16.5314763,6.68913649 C16.0373259,6.68913649 15.5133705,6.85626741 15.1969359,7.05431755 L14.9183844,6.08635097 C15.2548747,5.89749304 15.9178273,5.66100279 16.7972145,5.66100279 C18.4091922,5.66100279 18.9233983,6.61030641 18.9233983,7.74735376 L18.9233983,9.42841226 C18.9233983,9.89247911 18.943454,10.3376045 18.9933148,10.6052925 L17.6370474,10.6052925 Z M17.4593315,8.32116992 C16.6688022,8.31114206 16.0548747,8.49972145 16.0548747,9.08272981 C16.0548747,9.46908078 16.3125348,9.65682451 16.6487465,9.65682451 C17.0005714,9.65829671 17.3142424,9.4354783 17.4286908,9.10278552 C17.4489895,9.01841667 17.4589974,8.93190027 17.4584958,8.84512535 L17.4593315,8.32116992 Z" id="Shape" fill="#1B171B" fill-rule="nonzero"></path>
            <path d="M19.7155989,7.36100279 C19.7155989,6.64930362 19.6955432,6.18495822 19.675766,5.76991643 L20.9713092,5.76991643 L21.0214485,6.65905292 L21.0601671,6.65905292 C21.3077994,5.95738162 21.9008357,5.66100279 22.3660167,5.66100279 C22.4718608,5.65692826 22.577849,5.66327262 22.6824513,5.67994429 L22.6824513,7.09442897 C22.5489458,7.06813912 22.4132276,7.05470722 22.2771588,7.05431755 C21.7231198,7.05431755 21.3479109,7.35208914 21.2465181,7.81615599 C21.226981,7.92723395 21.217657,8.03986769 21.218663,8.15264624 L21.218663,10.6052925 L19.7144847,10.6052925 L19.7155989,7.36100279 Z" id="Path" fill="#1B171B" fill-rule="nonzero"></path>
            <path d="M32.6033426,9.2994429 C32.6033426,9.79359331 32.6133705,10.2289694 32.6431755,10.6052925 L31.8715877,10.6052925 L31.821727,9.82367688 L31.8027855,9.82367688 C31.5752089,10.2089136 31.0699164,10.7150418 30.2206128,10.7150418 C29.4685237,10.7150418 28.5682451,10.2997214 28.5682451,8.61866295 L28.5682451,5.81866295 L29.4387187,5.81866295 L29.4387187,8.46796657 C29.4387187,9.37715877 29.7153203,9.9913649 30.5069638,9.9913649 C31.0899721,9.9913649 31.4952646,9.58495822 31.654039,9.19972145 C31.7063647,9.05696428 31.7330518,8.90608359 31.7328691,8.754039 L31.7328691,5.81866295 L32.6033426,5.81866295 L32.6033426,9.2994429 Z" id="Path" fill="#1B171B" fill-rule="nonzero"></path>
            <path d="M33.613649,10.6052925 C33.6337047,10.2788301 33.6526462,9.79359331 33.6526462,9.36824513 L33.6526462,3.58356546 L34.5125348,3.58356546 L34.5125348,6.5902507 L34.5325905,6.5902507 C34.8389972,6.05626741 35.3930362,5.7097493 36.164624,5.7097493 C37.3504178,5.7097493 38.1910864,6.69916435 38.1810585,8.15264624 C38.1810585,9.86350975 37.1030641,10.7153203 36.0362117,10.7153203 C35.343454,10.7153203 34.7902507,10.4476323 34.4339833,9.81476323 L34.4038997,9.81476323 L34.3651811,10.6064067 L33.613649,10.6052925 Z M34.5125348,8.68662953 C34.515421,8.79315739 34.5287627,8.89914429 34.5523677,9.00306407 C34.7194986,9.60612813 35.224234,10.0211699 35.8571031,10.0211699 C36.767688,10.0211699 37.310585,9.27966574 37.310585,8.18272981 C37.310585,7.22339833 36.8164345,6.40306407 35.8871866,6.40306407 C35.2941504,6.40306407 34.7401114,6.80835655 34.5623955,7.46991643 C34.5426184,7.56991643 34.5125348,7.68774373 34.5125348,7.8264624 L34.5125348,8.68662953 Z" id="Shape" fill="#1B171B" fill-rule="nonzero"></path>
            <path d="M39.3696379,8.37019499 C39.3885794,9.54707521 40.14039,10.0311978 41.0108635,10.0311978 C41.6337047,10.0311978 42.0100279,9.92256267 42.335376,9.78467967 L42.4841226,10.4075209 C42.1777159,10.5454039 41.6537604,10.7041783 40.891922,10.7041783 C39.418663,10.7041783 38.5381616,9.73481894 38.5381616,8.2913649 C38.5381616,6.84791086 39.3885794,5.71030641 40.7830084,5.71030641 C42.3454039,5.71030641 42.7607242,7.08495822 42.7607242,7.96657382 C42.7598148,8.1021168 42.7505119,8.23747337 42.7328691,8.3718663 L39.3696379,8.37019499 Z M41.9200557,7.74735376 C41.9300836,7.19331476 41.6935933,6.33259053 40.7142061,6.33259053 C39.8337047,6.33259053 39.448468,7.14428969 39.3771588,7.74735376 L41.9200557,7.74735376 Z" id="Shape" fill="#1B171B" fill-rule="nonzero"></path>
            <path d="M27.5350975,6.68050139 C26.7677835,5.55180758 25.2550869,5.21432272 24.0807887,5.90983998 C22.9064905,6.60535724 22.4754347,8.09409427 23.0964539,9.30943605 C23.7174731,10.5247778 25.1764686,11.0477304 26.4281337,10.5036212 L27.4284123,12.1275766 L28.2220056,11.5877437 L27.2222841,9.96350975 C28.1023016,9.08636886 28.2336807,7.70718143 27.5350975,6.67966574 M26.4147632,9.62980501 C25.8091074,10.0415059 25.015082,10.0478159 24.4029596,9.64579242 C23.7908373,9.24376898 23.481173,8.51258902 23.6183704,7.79321882 C23.7555678,7.07384861 24.3126065,6.5079652 25.0297263,6.35945323 C25.7468461,6.21094125 26.4828132,6.50904953 26.894429,7.11476323 C27.4555941,7.94191271 27.2409705,9.06725353 26.4147632,9.62980501" id="Shape" fill="#1B171B"></path>
            <path d="M48.7086351,10.6253482 L48.0958217,10.6253482 C48.0958217,5.68997214 44.0231198,1.67437326 39.0175487,1.67437326 L39.0175487,1.06155989 C44.3610028,1.06155989 48.7086351,5.35181058 48.7086351,10.6253482 Z" id="Path" fill="#4E9BCD" fill-rule="nonzero"></path>
            <path d="M49.1325905,7.33426184 C48.3963788,4.23760446 45.8877437,1.65181058 42.7420613,0.749860724 L42.881337,0.258774373 C46.2016713,1.21197772 48.8501393,3.94261838 49.6281337,7.21615599 L49.1325905,7.33426184 Z" id="Path" fill="#4E9BCD" fill-rule="nonzero"></path>
            <path d="M49.6038997,4.42896936 C48.8456825,2.77576602 47.554039,1.33398329 45.9668524,0.369637883 L46.1791086,0.0203342618 C47.835376,1.02674095 49.1835655,2.53175487 49.9754875,4.25849582 L49.6038997,4.42896936 Z" id="Path" fill="#4E9BCD" fill-rule="nonzero"></path>
        </g>
    </g>
</svg>